<svg width="104" height="111" viewBox="0 0 104 111" fill="none" xmlns="http://www.w3.org/2000/svg">
<path d="M104 106V12.6494C104 8.11603 98.4509 5.92261 95.3513 9.23084L7.88771 102.581C4.89541 105.775 7.15994 111 11.5364 111H99C101.761 111 104 108.761 104 106Z" fill="#2D8CB3"/>
<g clip-path="url(#clip0_1_2268)">
<path d="M89.1073 72.9677C89.1056 72.9658 89.1056 72.9658 89.1073 72.9677L80.454 63.7319C79.6575 62.8818 78.3648 62.8819 77.5683 63.7319C76.7719 64.582 76.7719 65.9617 77.5683 66.8118L82.7392 72.3306L58.8188 72.3288C57.6921 72.3288 56.7791 73.3032 56.7791 74.5058C56.7808 75.107 57.0086 75.6518 57.3777 76.0457C57.7468 76.4396 58.2572 76.6828 58.8188 76.6828H82.7409L77.5701 82.2016C76.7736 83.0517 76.7736 84.4314 77.5701 85.2815C78.3666 86.1316 79.6593 86.1316 80.4557 85.2815L90.5501 74.5077L89.1073 72.9677Z" fill="white"/>
</g>
<defs>
<clipPath id="clip0_1_2268">
<rect width="25.8291" height="25.8291" rx="3" transform="matrix(0.683722 0.729742 -0.683722 0.729742 73.2412 55.6572)" fill="white"/>
</clipPath>
</defs>
</svg>
