<svg width="29" height="31" viewBox="0 0 29 31" fill="none" xmlns="http://www.w3.org/2000/svg">
<path d="M15.3788 31C15.3788 31 25.4848 20.3276 25.4848 12.2305C25.4848 9.24368 24.4201 6.37921 22.5248 4.26723C20.6296 2.15525 18.0591 0.96875 15.3788 0.96875C12.6985 0.96875 10.128 2.15525 8.23272 4.26723C6.33746 6.37921 5.27272 9.24368 5.27272 12.2305C5.27272 20.3276 15.3788 31 15.3788 31ZM15.3788 17.8613C14.0386 17.8613 12.7534 17.2681 11.8057 16.2121C10.8581 15.1561 10.3258 13.7239 10.3258 12.2305C10.3258 10.7371 10.8581 9.30484 11.8057 8.24885C12.7534 7.19286 14.0386 6.59961 15.3788 6.59961C16.7189 6.59961 18.0042 7.19286 18.9518 8.24885C19.8994 9.30484 20.4318 10.7371 20.4318 12.2305C20.4318 13.7239 19.8994 15.1561 18.9518 16.2121C18.0042 17.2681 16.7189 17.8613 15.3788 17.8613Z" fill="#2D8CB3"/>
</svg>
