<svg width="34" height="33" viewBox="0 0 34 33" fill="none" xmlns="http://www.w3.org/2000/svg">
<g clip-path="url(#clip0_1_564)">
<path fill-rule="evenodd" clip-rule="evenodd" d="M25.2669 12.6771C25.3855 12.2871 25.2669 12 24.6988 12H22.823C22.3457 12 22.1256 12.2479 22.0062 12.5214C22.0062 12.5214 21.0522 14.8043 19.701 16.2871C19.2636 16.7171 19.065 16.8536 18.8263 16.8536C18.707 16.8536 18.5276 16.7171 18.5276 16.3264V12.6771C18.5276 12.2086 18.3961 12 17.9988 12H15.049C14.751 12 14.5716 12.2171 14.5716 12.4236C14.5716 12.8671 15.2476 12.97 15.317 14.2186V16.9314C15.317 17.5264 15.2076 17.6343 14.9689 17.6343C14.333 17.6343 12.7859 15.3407 11.8676 12.7164C11.6897 12.2057 11.5096 12 11.0301 12H9.1529C8.61695 12 8.50977 12.2479 8.50977 12.5214C8.50977 13.0086 9.14575 15.4286 11.4717 18.6293C13.0224 20.815 15.2055 22 17.1942 22C18.3868 22 18.534 21.7371 18.534 21.2836V19.6314C18.534 19.105 18.6469 19 19.025 19C19.3036 19 19.7803 19.1371 20.8936 20.1907C22.1656 21.44 22.375 22 23.091 22H24.9668C25.5027 22 25.7714 21.7371 25.6171 21.2171C25.447 20.7 24.8396 19.9493 24.0342 19.0586C23.5969 18.5514 22.9409 18.005 22.7415 17.7314C22.4636 17.3807 22.5429 17.2243 22.7415 16.9121C22.7415 16.9121 25.0282 13.7507 25.2662 12.6771H25.2669Z" fill="white"/>
</g>
<path d="M32.7316 16.5C32.7316 25.0521 25.735 32 17.0855 32C8.43612 32 1.43945 25.0521 1.43945 16.5C1.43945 7.94788 8.43612 1 17.0855 1C25.735 1 32.7316 7.94788 32.7316 16.5Z" stroke="#2D8CB3" stroke-width="2"/>
<defs>
<clipPath id="clip0_1_564">
<rect width="17.1505" height="17" fill="white" transform="translate(8.50977 8)"/>
</clipPath>
</defs>
</svg>
