<svg width="34" height="33" viewBox="0 0 34 33" fill="none" xmlns="http://www.w3.org/2000/svg">
<path d="M17.4419 8.01434C18.3918 8 19.3362 8.0085 20.2795 8C20.3367 9.08434 20.7362 10.1889 21.5494 10.9555C22.361 11.7413 23.509 12.1009 24.626 12.2226V15.075C23.5792 15.0416 22.5276 14.8291 21.5777 14.3892C21.164 14.2064 20.7787 13.971 20.4014 13.7304C20.3965 15.8002 20.4101 17.8674 20.3878 19.9288C20.3312 20.9191 19.9964 21.9046 19.4064 22.7207C18.4571 24.0791 16.8094 24.9648 15.1171 24.9924C14.079 25.0503 13.0421 24.774 12.1576 24.2651C10.6917 23.4214 9.66017 21.877 9.50993 20.2194C9.49101 19.8683 9.4881 19.5166 9.50122 19.1653C9.63186 17.8175 10.315 16.5281 11.3753 15.6509C12.5772 14.6293 14.2608 14.1426 15.8372 14.4306C15.8519 15.4799 15.8089 16.5281 15.8089 17.5774C15.0888 17.35 14.2472 17.4137 13.618 17.8403C13.1576 18.1363 12.8097 18.5719 12.6279 19.0798C12.4776 19.439 12.5206 19.8379 12.5293 20.2194C12.7019 21.3818 13.8472 22.3589 15.0697 22.2531C15.8802 22.2446 16.657 21.7856 17.0794 21.1135C17.216 20.8782 17.369 20.6375 17.3771 20.3607C17.4484 19.0936 17.4201 17.8318 17.4288 16.5647C17.4348 13.7091 17.4201 10.8615 17.4425 8.01488L17.4419 8.01434Z" fill="white"/>
<path d="M32.7053 16.5C32.7053 25.0521 25.7086 32 17.0592 32C8.40975 32 1.41309 25.0521 1.41309 16.5C1.41309 7.94788 8.40975 1 17.0592 1C25.7086 1 32.7053 7.94788 32.7053 16.5Z" stroke="#2D8CB3" stroke-width="2"/>
</svg>
