<svg width="35" height="33" viewBox="0 0 35 33" fill="none" xmlns="http://www.w3.org/2000/svg">
<path d="M33.2189 16.5C33.2189 25.0521 26.2223 32 17.5729 32C8.92342 32 1.92676 25.0521 1.92676 16.5C1.92676 7.94788 8.92342 1 17.5729 1C26.2223 1 33.2189 7.94788 33.2189 16.5Z" stroke="#2D8CB3" stroke-width="2"/>
<path d="M17.5714 14.3324C16.3673 14.3324 15.3847 15.3064 15.3847 16.5C15.3847 17.6936 16.3673 18.6676 17.5714 18.6676C18.7755 18.6676 19.7582 17.6936 19.7582 16.5C19.7582 15.3064 18.7755 14.3324 17.5714 14.3324ZM24.13 16.5C24.13 15.6024 24.1382 14.7129 24.0873 13.8169C24.0365 12.7762 23.797 11.8526 23.0292 11.0916C22.2599 10.329 21.3297 10.0932 20.2798 10.0428C19.3743 9.99235 18.477 10.0005 17.5731 10.0005C16.6675 10.0005 15.7702 9.99235 14.8663 10.0428C13.8164 10.0932 12.8846 10.3306 12.1169 11.0916C11.3475 11.8542 11.1096 12.7762 11.0588 13.8169C11.0079 14.7145 11.0161 15.604 11.0161 16.5C11.0161 17.396 11.0079 18.2871 11.0588 19.1831C11.1096 20.2238 11.3491 21.1474 12.1169 21.9084C12.8862 22.671 13.8164 22.9068 14.8663 22.9572C15.7718 23.0076 16.6692 22.9995 17.5731 22.9995C18.4786 22.9995 19.3759 23.0076 20.2798 22.9572C21.3297 22.9068 22.2615 22.6694 23.0292 21.9084C23.7986 21.1458 24.0365 20.2238 24.0873 19.1831C24.1398 18.2871 24.13 17.3976 24.13 16.5ZM17.5714 19.8351C15.7095 19.8351 14.2068 18.3456 14.2068 16.5C14.2068 14.6544 15.7095 13.1649 17.5714 13.1649C19.4333 13.1649 20.936 14.6544 20.936 16.5C20.936 18.3456 19.4333 19.8351 17.5714 19.8351ZM21.0738 13.8072C20.6391 13.8072 20.288 13.4592 20.288 13.0283C20.288 12.5974 20.6391 12.2494 21.0738 12.2494C21.5085 12.2494 21.8596 12.5974 21.8596 13.0283C21.8597 13.1306 21.8395 13.2319 21.8 13.3265C21.7606 13.4211 21.7027 13.507 21.6297 13.5793C21.5567 13.6517 21.4701 13.7091 21.3747 13.7482C21.2793 13.7873 21.177 13.8073 21.0738 13.8072Z" fill="white"/>
</svg>
