<svg width="42" height="43" viewBox="0 0 42 43" fill="none" xmlns="http://www.w3.org/2000/svg">
<path fill-rule="evenodd" clip-rule="evenodd" d="M32.0022 17.364C31.9844 16.4478 31.8157 15.5413 31.5033 14.6831C31.2338 13.9461 30.8113 13.2785 30.2652 12.7268C29.7291 12.1649 29.0803 11.7302 28.3641 11.4529C27.53 11.1314 26.6491 10.9578 25.7586 10.9395C24.6138 10.8858 24.2483 10.873 21.3332 10.873C18.4181 10.873 18.0526 10.8858 16.9077 10.9395C16.0173 10.9578 15.1363 11.1314 14.3023 11.4529C13.5861 11.7302 12.9373 12.1649 12.4011 12.7268C11.8551 13.2785 11.4326 13.9461 11.1631 14.6831C10.8507 15.5413 10.682 16.4478 10.6642 17.364C10.612 18.5421 10.5996 18.9181 10.5996 21.9177C10.5996 24.9173 10.612 25.2934 10.6642 26.4714C10.682 27.3877 10.8507 28.2942 11.1631 29.1524C11.4326 29.8893 11.8551 30.5569 12.4011 31.1086C12.9373 31.6705 13.5861 32.1053 14.3023 32.3826C15.1363 32.704 16.0173 32.8776 16.9077 32.8959C18.0526 32.9497 18.4181 32.9624 21.3332 32.9624C24.2483 32.9624 24.6138 32.9497 25.7586 32.8959C26.6491 32.8776 27.53 32.704 28.3641 32.3826C29.8059 31.8088 30.9457 30.636 31.5033 29.1524C31.8157 28.2942 31.9844 27.3877 32.0022 26.4714C32.0544 25.2934 32.0668 24.9173 32.0668 21.9177C32.0668 18.9181 32.0544 18.5421 32.0022 17.364ZM30.0702 26.3809C30.0621 27.0813 29.9371 27.775 29.7005 28.4317C29.3395 29.395 28.5996 30.1563 27.6635 30.5279C27.0252 30.7713 26.3511 30.8999 25.6704 30.9082C24.5388 30.9613 24.1993 30.9726 21.3332 30.9726C18.467 30.9726 18.1276 30.9613 16.9959 30.9082C16.3153 30.8999 15.6412 30.7713 15.0029 30.5279C14.5367 30.3509 14.115 30.0685 13.7687 29.7017C13.4122 29.3454 13.1379 28.9115 12.9658 28.4317C12.7293 27.775 12.6043 27.0813 12.5962 26.3809C12.5446 25.2163 12.5337 24.867 12.5337 21.9179C12.5337 18.9688 12.5446 18.6196 12.5962 17.4549C12.6043 16.7546 12.7293 16.0609 12.9658 15.4041C13.1379 14.9244 13.4122 14.4904 13.7687 14.1342C14.1149 13.7673 14.5367 13.485 15.0029 13.308C15.6412 13.0646 16.3153 12.9359 16.9959 12.9276C18.1278 12.8745 18.4672 12.8633 21.3332 12.8633C24.1992 12.8633 24.5386 12.8745 25.6704 12.9276C26.3511 12.9359 27.0252 13.0646 27.6635 13.308C28.1297 13.485 28.5514 13.7673 28.8976 14.1342C29.2541 14.4904 29.5285 14.9244 29.7005 15.4041C29.9371 16.0609 30.0621 16.7546 30.0702 17.4549C30.1218 18.6195 30.1327 18.9689 30.1327 21.9179C30.1327 24.867 30.1218 25.2163 30.0702 26.3809ZM15.821 21.9179C15.821 18.7856 18.2888 16.2463 21.3329 16.2463C24.3771 16.2463 26.8448 18.7856 26.8448 21.9179C26.8448 25.0502 24.3771 27.5895 21.3329 27.5895C18.2888 27.5895 15.821 25.0502 15.821 21.9179ZM21.3325 25.5997C19.3565 25.5997 17.7546 23.9514 17.7546 21.9181C17.7546 19.8848 19.3565 18.2366 21.3325 18.2366C23.3085 18.2366 24.9104 19.8848 24.9104 21.9181C24.9104 22.8945 24.5334 23.8309 23.8625 24.5214C23.1915 25.2118 22.2814 25.5997 21.3325 25.5997ZM27.0617 17.3477C27.7731 17.3477 28.3497 16.7543 28.3497 16.0223C28.3497 15.2904 27.7731 14.697 27.0617 14.697C26.3504 14.697 25.7737 15.2904 25.7737 16.0223C25.7737 16.7543 26.3504 17.3477 27.0617 17.3477Z" fill="#2D8CB3"/>
<path d="M20.9999 0.5C32.3099 0.5 41.5 9.89161 41.5 21.5001C41.5 33.1085 32.3101 42.5 21.0001 42.5C9.69005 42.5 0.5 33.1084 0.5 21.5001C0.5 9.89173 9.68864 0.5 20.9999 0.5Z" stroke="#2D8CB3"/>
</svg>
