<svg width="43" height="46" viewBox="0 0 43 46" fill="none" xmlns="http://www.w3.org/2000/svg">
<path d="M39.2186 7.84065C40.1337 7.80932 40.8746 8.42838 41.4412 9.69781C42.0078 10.9672 42.2938 12.6145 42.2993 14.6396C42.3101 18.653 40.9909 22.0955 38.3418 24.9671C35.6913 27.8373 32.4479 29.3381 28.6116 29.4694C27.6965 29.5007 26.7903 29.4397 25.893 29.2863C24.9943 29.1329 24.1397 28.886 23.3292 28.5455L8.85188 44.2308C8.04465 45.1054 7.05189 45.5724 5.87358 45.6319C4.69387 45.6899 3.69812 45.3094 2.88634 44.4902L1.4041 43.0496C0.557121 42.2317 0.123527 41.2059 0.10331 39.9722C0.0816894 38.7401 0.492037 37.6678 1.33436 36.7552L15.8644 21.0128C15.5101 20.178 15.2522 19.303 15.0907 18.388C14.9305 17.4729 14.8492 16.5551 14.8467 15.6346C14.8359 11.6211 16.1558 8.17936 18.8063 5.30918C21.4553 2.43758 24.6981 0.936123 28.5344 0.804807C30.4702 0.738547 32.0547 0.970059 33.2881 1.49934C34.5215 2.02716 35.1395 2.76973 35.1421 3.72705C35.1431 4.09525 35.0827 4.43831 34.9611 4.75621C34.8381 5.07268 34.6537 5.36401 34.408 5.63019L28.5644 11.9613L31.5294 15.0083L37.3729 8.67712C37.6186 8.41095 37.8997 8.20837 38.2161 8.06939C38.5325 7.92894 38.8667 7.85269 39.2186 7.84065Z" fill="white"/>
</svg>
