<svg width="350" height="67" viewBox="0 0 350 67" fill="none" xmlns="http://www.w3.org/2000/svg">
<path d="M25.56 16.96C24.2 16.96 23.04 17.34 22.08 18.1C21.12 18.86 20.32 19.96 19.68 21.4C19.08 22.8 18.62 24.54 18.3 26.62C18.02 28.7 17.88 31.06 17.88 33.7C17.88 36.58 18.04 39.08 18.36 41.2C18.72 43.28 19.22 45.02 19.86 46.42C20.54 47.78 21.4 48.8 22.44 49.48C23.52 50.16 24.76 50.5 26.16 50.5C27.8 50.5 29.26 50.02 30.54 49.06C31.82 48.1 32.9 46.76 33.78 45.04C34.66 43.32 35.3 41.32 35.7 39.04L40.02 40.78C39.46 43.7 38.52 46.28 37.2 48.52C35.92 50.76 34.16 52.5 31.92 53.74C29.72 54.98 26.98 55.6 23.7 55.6C20.46 55.6 17.5 55.08 14.82 54.04C12.14 53 9.82 51.52 7.86 49.6C5.9 47.64 4.38 45.32 3.3 42.64C2.22 39.96 1.68 36.98 1.68 33.7C1.68 30.38 2.24 27.38 3.36 24.7C4.48 22.02 6 19.72 7.92 17.8C9.88 15.88 12.12 14.4 14.64 13.36C17.2 12.32 19.9 11.8 22.74 11.8C25.7 11.8 28.1 12.32 29.94 13.36C31.78 14.36 33.22 15.72 34.26 17.44C35.34 19.16 36.18 21.1 36.78 23.26L33.24 22.18L34.44 12.4H39.36V25.96H33.78C33.3 24.2 32.68 22.64 31.92 21.28C31.2 19.92 30.32 18.86 29.28 18.1C28.24 17.34 27 16.96 25.56 16.96ZM59.7703 10.6V50.38C59.7703 50.58 59.8503 50.74 60.0103 50.86C60.2103 50.98 60.4303 51.06 60.6703 51.1C60.9503 51.14 61.2103 51.16 61.4503 51.16H61.5703V55H43.0303V51.16H43.0903C43.4503 51.16 43.7703 51.12 44.0503 51.04C44.3703 50.96 44.6103 50.82 44.7703 50.62C44.9703 50.38 45.0703 50.06 45.0703 49.66V16.24C45.0703 15.96 45.0103 15.74 44.8903 15.58C44.8103 15.38 44.6503 15.22 44.4103 15.1C44.2103 14.98 43.9103 14.86 43.5103 14.74L43.0303 14.62V10.6H59.7703ZM82.6303 55H64.0903V51.16H64.1503C64.3903 51.16 64.6503 51.16 64.9303 51.16C65.2103 51.12 65.4303 51.06 65.5903 50.98C65.7903 50.9 65.8903 50.8 65.8903 50.68V33.28C65.8903 32.64 65.8103 32.12 65.6503 31.72C65.5303 31.28 65.3103 30.96 64.9903 30.76C64.7103 30.52 64.3103 30.4 63.7903 30.4C63.1103 30.4 62.4703 30.64 61.8703 31.12C61.2703 31.6 60.7103 32.32 60.1903 33.28C59.6703 34.2 59.1703 35.38 58.6903 36.82L58.3903 31.06C58.9903 29.5 59.8303 28.14 60.9103 26.98C62.0303 25.82 63.3703 24.94 64.9303 24.34C66.4903 23.7 68.1703 23.38 69.9703 23.38C72.1303 23.38 73.9903 23.8 75.5503 24.64C77.1503 25.48 78.3903 26.7 79.2703 28.3C80.1503 29.9 80.5903 31.88 80.5903 34.24V49.66C80.5903 50.26 80.7703 50.66 81.1303 50.86C81.5303 51.06 81.9903 51.16 82.5103 51.16H82.6303V55ZM93.2873 21.46C90.9673 21.46 89.1473 20.96 87.8273 19.96C86.5073 18.92 85.8473 17.48 85.8473 15.64C85.8473 13.8 86.5073 12.38 87.8273 11.38C89.1473 10.34 90.9673 9.82 93.2873 9.82C95.6473 9.82 97.4673 10.34 98.7473 11.38C100.067 12.38 100.727 13.8 100.727 15.64C100.727 17.48 100.067 18.92 98.7473 19.96C97.4673 20.96 95.6473 21.46 93.2873 21.46ZM100.727 23.98V49.66C100.727 50.26 100.927 50.66 101.327 50.86C101.727 51.06 102.187 51.16 102.707 51.16H102.767V55H83.9873V51.16H84.0473C84.6073 51.16 85.0673 51.06 85.4273 50.86C85.8273 50.66 86.0273 50.26 86.0273 49.66V29.62C86.0273 29.14 85.9073 28.82 85.6673 28.66C85.4273 28.46 85.0273 28.28 84.4673 28.12L83.9873 28V23.98H100.727ZM121.177 10.6V49.66C121.177 50.26 121.377 50.66 121.777 50.86C122.177 51.06 122.637 51.16 123.157 51.16H123.217V55H104.437V51.16H104.497C105.057 51.16 105.517 51.06 105.877 50.86C106.277 50.66 106.477 50.26 106.477 49.66V16.24C106.477 15.92 106.417 15.68 106.297 15.52C106.217 15.36 106.057 15.22 105.817 15.1C105.617 14.98 105.317 14.86 104.917 14.74L104.437 14.62V10.6H121.177ZM141.626 10.6V49.66C141.626 50.26 141.826 50.66 142.226 50.86C142.626 51.06 143.086 51.16 143.606 51.16H143.666V55H124.886V51.16H124.946C125.506 51.16 125.966 51.06 126.326 50.86C126.726 50.66 126.926 50.26 126.926 49.66V16.24C126.926 15.92 126.866 15.68 126.746 15.52C126.666 15.36 126.506 15.22 126.266 15.1C126.066 14.98 125.766 14.86 125.366 14.74L124.886 14.62V10.6H141.626ZM160.455 39.52C160.455 41.4 160.555 43.02 160.755 44.38C160.995 45.74 161.355 46.88 161.835 47.8C162.355 48.68 163.055 49.34 163.935 49.78C164.815 50.18 165.915 50.38 167.235 50.38C168.555 50.38 169.695 50.12 170.655 49.6C171.655 49.08 172.535 48.4 173.295 47.56C174.055 46.72 174.695 45.82 175.215 44.86L179.115 47.38C178.315 49.02 177.255 50.46 175.935 51.7C174.655 52.94 173.075 53.9 171.195 54.58C169.315 55.26 167.055 55.6 164.415 55.6C160.535 55.6 157.195 54.96 154.395 53.68C151.595 52.4 149.455 50.56 147.975 48.16C146.495 45.72 145.755 42.84 145.755 39.52C145.755 36.28 146.495 33.44 147.975 31C149.495 28.56 151.575 26.68 154.215 25.36C156.895 24.04 159.935 23.38 163.335 23.38C166.055 23.38 168.435 23.76 170.475 24.52C172.555 25.24 174.295 26.34 175.695 27.82C177.095 29.3 178.155 31.14 178.875 33.34C179.595 35.54 179.955 38.1 179.955 41.02H157.275V36.64H167.835L166.695 38.2C166.655 36.08 166.575 34.36 166.455 33.04C166.335 31.72 166.155 30.72 165.915 30.04C165.715 29.32 165.415 28.84 165.015 28.6C164.655 28.32 164.215 28.18 163.695 28.18C163.175 28.18 162.715 28.36 162.315 28.72C161.915 29.08 161.575 29.68 161.295 30.52C161.015 31.36 160.795 32.52 160.635 34C160.515 35.44 160.455 37.28 160.455 39.52ZM208.892 24.04V35.92C208.572 35.84 208.192 35.76 207.752 35.68C207.352 35.6 206.932 35.54 206.492 35.5C206.052 35.46 205.592 35.44 205.112 35.44C204.312 35.44 203.512 35.5 202.712 35.62C201.952 35.7 201.212 35.86 200.492 36.1C199.812 36.3 199.192 36.6 198.632 37C198.112 37.4 197.692 37.92 197.372 38.56V35.8C197.852 33.52 198.432 31.46 199.112 29.62C199.832 27.78 200.772 26.34 201.932 25.3C203.092 24.22 204.612 23.68 206.492 23.68C207.052 23.68 207.532 23.72 207.932 23.8C208.372 23.88 208.692 23.96 208.892 24.04ZM182.132 55V51.16H182.192C182.752 51.16 183.212 51.06 183.572 50.86C183.972 50.66 184.172 50.26 184.172 49.66V29.62C184.172 29.3 184.112 29.06 183.992 28.9C183.912 28.7 183.752 28.56 183.512 28.48C183.312 28.36 183.012 28.24 182.612 28.12L182.132 28V23.98H198.032V34.54L198.872 33.94V50.68C198.872 50.8 199.032 50.9 199.352 50.98C199.712 51.06 200.112 51.12 200.552 51.16C201.032 51.16 201.472 51.16 201.872 51.16H202.232V55H182.132ZM224.694 48.82V17.2H223.134C221.934 17.2 220.934 17.26 220.134 17.38C219.374 17.5 218.814 17.76 218.454 18.16C218.094 18.52 217.874 19.06 217.794 19.78L217.014 27.16H211.614V12.4H253.374V27.16H247.974L247.194 19.78C247.154 19.06 246.934 18.52 246.534 18.16C246.134 17.76 245.554 17.5 244.794 17.38C244.034 17.26 243.054 17.2 241.854 17.2H240.294V48.82C240.294 49.66 240.514 50.22 240.954 50.5C241.434 50.74 242.054 50.86 242.814 50.86H243.654V55H221.334V50.86H222.174C222.934 50.86 223.534 50.74 223.974 50.5C224.454 50.22 224.694 49.66 224.694 48.82ZM278.6 55.6C275.24 55.6 272.16 55.1 269.36 54.1C266.6 53.06 264.2 51.58 262.16 49.66C260.16 47.74 258.6 45.44 257.48 42.76C256.4 40.04 255.86 37.02 255.86 33.7C255.86 30.38 256.4 27.38 257.48 24.7C258.6 22.02 260.16 19.72 262.16 17.8C264.2 15.88 266.6 14.4 269.36 13.36C272.16 12.32 275.24 11.8 278.6 11.8C281.96 11.8 285.02 12.32 287.78 13.36C290.58 14.4 292.98 15.88 294.98 17.8C297.02 19.72 298.58 22.02 299.66 24.7C300.78 27.38 301.34 30.38 301.34 33.7C301.34 37.02 300.78 40.04 299.66 42.76C298.58 45.44 297.02 47.74 294.98 49.66C292.98 51.58 290.58 53.06 287.78 54.1C285.02 55.1 281.96 55.6 278.6 55.6ZM278.6 50.5C279.68 50.5 280.62 50.18 281.42 49.54C282.26 48.86 282.94 47.84 283.46 46.48C284.02 45.08 284.44 43.32 284.72 41.2C285 39.08 285.14 36.58 285.14 33.7C285.14 30.86 285 28.4 284.72 26.32C284.44 24.2 284.02 22.44 283.46 21.04C282.94 19.64 282.26 18.6 281.42 17.92C280.62 17.24 279.68 16.9 278.6 16.9C277.52 16.9 276.56 17.24 275.72 17.92C274.92 18.6 274.24 19.64 273.68 21.04C273.16 22.44 272.76 24.2 272.48 26.32C272.2 28.4 272.06 30.86 272.06 33.7C272.06 36.58 272.2 39.08 272.48 41.2C272.76 43.32 273.16 45.08 273.68 46.48C274.24 47.84 274.94 48.86 275.78 49.54C276.62 50.18 277.56 50.5 278.6 50.5ZM323.147 50.26C323.147 50.38 323.207 50.48 323.327 50.56C323.487 50.6 323.687 50.66 323.927 50.74C324.167 50.78 324.427 50.82 324.707 50.86C324.987 50.86 325.267 50.86 325.547 50.86H326.987V55H304.367V50.86H304.967C305.727 50.86 306.347 50.74 306.827 50.5C307.307 50.22 307.547 49.66 307.547 48.82V18.64C307.547 17.8 307.307 17.24 306.827 16.96C306.347 16.68 305.727 16.54 304.967 16.54H304.367V12.4H328.907C334.347 12.4 338.547 13.5 341.507 15.7C344.507 17.86 346.007 20.98 346.007 25.06C346.007 27.9 345.307 30.34 343.907 32.38C342.507 34.38 340.507 35.92 337.907 37C335.307 38.08 332.207 38.62 328.607 38.62H321.167V33.82H324.767C326.007 33.82 327.067 33.54 327.947 32.98C328.867 32.38 329.567 31.46 330.047 30.22C330.567 28.98 330.827 27.34 330.827 25.3C330.827 23.34 330.587 21.78 330.107 20.62C329.627 19.42 328.947 18.56 328.067 18.04C327.187 17.48 326.147 17.2 324.947 17.2H323.147V50.26Z" fill="#2D8CB3"/>
</svg>
