<svg width="32" height="33" viewBox="0 0 32 33" fill="none" xmlns="http://www.w3.org/2000/svg">
<g opacity="0.6">
<path d="M10.7351 24.5141L11.6065 24.9945C12.9568 25.739 14.4648 26.1274 15.996 26.125L16 26.125C21.1548 26.125 25.3333 21.8159 25.3333 16.5C25.3333 11.1841 21.1548 6.875 16 6.875C10.8452 6.875 6.66668 11.1841 6.66668 16.5V16.5041C6.66437 18.0832 7.04097 19.6383 7.76289 21.0308L8.22873 21.9294L7.51244 25.2528L10.7351 24.5141ZM4.00001 28.875L5.41121 22.3274C4.48185 20.5347 3.99705 18.5328 4.00001 16.5C4.00001 9.66528 9.37241 4.125 16 4.125C22.6276 4.125 28 9.66528 28 16.5C28 23.3347 22.6276 28.875 16 28.875C14.0288 28.878 12.0875 28.3781 10.3492 27.4197L4.00001 28.875Z" fill="#2D8CB3"/>
</g>
</svg>
