<svg width="30" height="37" viewBox="0 0 30 37" fill="none" xmlns="http://www.w3.org/2000/svg">
<g opacity="0.6">
<path d="M10.9277 13.3846C9.58627 14.7903 9.09469 17.3541 10.253 19.4108C11.3369 21.3355 12.7022 23.0191 14.2624 24.3553C15.9301 25.7835 18.0087 25.1771 19.1484 23.5226L19.1611 23.5298C20.6168 24.3615 22.163 24.9316 23.75 25.2221V29.2916L23.7486 29.2916L23.7451 29.2916C13.7769 29.3091 6.23934 19.9046 6.25001 7.71387V7.70833H9.54921L9.54943 7.71014C9.785 9.66725 10.247 11.5726 10.9214 13.3679L10.9277 13.3846ZM23.7486 32.375H25C25.6904 32.375 26.25 31.6847 26.25 30.8333V23.8923C26.25 23.1283 25.7963 22.4795 25.1835 22.3674L24.1158 22.1719C22.7654 21.9247 21.4507 21.4398 20.2119 20.7321L19.2708 20.1944C18.7255 19.8829 18.0775 20.0941 17.7282 20.6973L17.3022 21.4329C16.9288 22.0776 16.216 22.2746 15.6883 21.8227C14.3729 20.6961 13.2201 19.2746 12.3063 17.6519C11.9398 17.0011 12.0994 16.1218 12.6223 15.6613L13.2185 15.1362C13.7076 14.7054 13.8789 13.9062 13.6262 13.2335L13.1898 12.0718C12.6159 10.5441 12.2228 8.92277 12.0223 7.25738L11.8638 5.94029C11.7728 5.18456 11.2468 4.625 10.6273 4.625H5.00001C4.30966 4.625 3.75001 5.31523 3.75001 6.16667V7.71054C3.73786 21.5955 12.3878 32.3949 23.7486 32.375Z" fill="#2D8CB3"/>
</g>
</svg>
