<svg width="29" height="26" viewBox="0 0 29 26" fill="none" xmlns="http://www.w3.org/2000/svg">
<path d="M27.3889 18.0556C25.375 18.0556 23.4417 17.7667 21.6372 17.2322C21.0733 17.0733 20.445 17.1889 19.9939 17.5789L16.4494 20.7567C11.89 18.6767 8.15222 15.34 5.83222 11.2378L9.37667 8.04556C9.82778 7.67 9.95667 7.10667 9.77944 6.60111C9.18333 4.98333 8.86111 3.25 8.86111 1.44444C8.86111 0.65 8.13611 0 7.25 0H1.61111C0.725 0 0 0.65 0 1.44444C0 15.0078 12.2606 26 27.3889 26C28.275 26 29 25.35 29 24.5556V19.5C29 18.7056 28.275 18.0556 27.3889 18.0556ZM25.7778 13H29C29 5.82111 22.5072 0 14.5 0V2.88889C20.735 2.88889 25.7778 7.41 25.7778 13ZM19.3333 13H22.5556C22.5556 9.01333 18.9467 5.77778 14.5 5.77778V8.66667C17.1744 8.66667 19.3333 10.6022 19.3333 13Z" fill="#2D8CB3"/>
</svg>
