<svg width="55" height="56" viewBox="0 0 55 56" fill="none" xmlns="http://www.w3.org/2000/svg">
<path d="M25.5285 0.809367C24.8675 0.809789 24.2985 1.29658 24.1905 1.95907L23.4258 6.6462C22.1073 6.87702 20.8328 7.2334 19.6063 7.69548L16.6203 4.02538C16.2002 3.50616 15.4695 3.3713 14.8953 3.70975L12.1978 5.29516C11.6237 5.63086 11.3728 6.33858 11.6061 6.96512L13.2486 11.4091C12.232 12.2698 11.2929 13.2237 10.4459 14.2562L6.06419 12.5948C5.44643 12.3588 4.74923 12.6142 4.41904 13.1971L2.85965 15.936C2.52676 16.5189 2.66052 17.2602 3.17273 17.6859L6.79327 20.7114C6.33928 21.9564 5.98952 23.25 5.76356 24.588L1.14503 25.3694C0.492234 25.4825 0.0131363 26.0549 0.013487 26.7284L0.0151362 29.8957C0.0154854 30.5664 0.495182 31.1437 1.14809 31.2532L5.76744 32.0287C5.99479 33.3664 6.34589 34.6596 6.80118 35.904L3.18379 38.9341C2.67202 39.3605 2.54175 40.102 2.87254 40.6845L4.43478 43.4214C4.76557 44.0039 5.46304 44.2583 6.08055 44.0216L10.4605 42.3546C11.3086 43.3859 12.2487 44.3387 13.2662 45.198L11.6283 49.6441C11.3957 50.2737 11.65 50.9784 12.2218 51.3133L14.921 52.8953C15.4954 53.2303 16.226 53.0945 16.6456 52.5775L19.6225 48.9035C20.8509 49.3649 22.128 49.7185 23.4483 49.9479L24.2179 54.6341C24.3294 55.2964 24.8934 55.7825 25.5571 55.7821L28.6788 55.7801C29.3397 55.7797 29.9087 55.2929 30.0167 54.6304L30.7815 49.9433C32.0999 49.7124 33.3745 49.3561 34.601 48.894L37.5869 52.5641C38.0071 53.0833 38.7378 53.2154 39.3119 52.8797L42.0094 51.2943C42.5836 50.9586 42.8345 50.2509 42.6012 49.6243L40.9587 45.1803C41.9752 44.3197 42.9143 43.3657 43.7614 42.3333L48.1431 43.9947C48.7635 44.2307 49.458 43.9725 49.7882 43.3924L51.3476 40.6535C51.6778 40.0705 51.544 39.3293 51.0345 38.9036L47.414 35.8834C47.8688 34.637 48.2175 33.3411 48.4437 32.0014L53.0622 31.22C53.715 31.1069 54.1941 30.5345 54.1938 29.8611L54.1921 26.6937C54.1918 26.0231 53.7121 25.4458 53.0592 25.3362L48.4398 24.5608C48.2125 23.223 47.8614 21.9298 47.4061 20.6854L51.0235 17.6553C51.5352 17.2289 51.6655 16.4875 51.3347 15.905L49.7725 13.1681C49.4417 12.5856 48.7442 12.3311 48.1267 12.5679L43.7467 14.2349C42.8986 13.2035 41.9585 12.2508 40.9411 11.3914L42.5789 6.94532C42.8116 6.31574 42.5572 5.61109 41.9855 5.27612L39.2863 3.69416C38.7118 3.35919 37.9813 3.49499 37.5616 4.012L34.5848 7.68591C33.3564 7.22453 32.0793 6.87093 30.7589 6.64151L29.9893 1.95536C29.8779 1.29301 29.3138 0.806947 28.6501 0.807371L25.5285 0.809367ZM24.3862 12.0516L24.3907 20.5283C22.8075 21.0974 21.4369 22.1502 20.4674 23.5419C19.4979 24.9335 18.9772 26.5958 18.9768 28.2999C18.9772 28.806 19.0235 29.3109 19.1152 29.8084L11.8795 34.0487C11.2266 32.2597 10.8511 30.3308 10.85 28.3051C10.8458 20.1036 16.681 13.3592 24.3862 12.0516ZM29.8041 12.0481C37.5107 13.3459 43.353 20.0828 43.3572 28.2843C43.3583 30.3125 42.981 32.243 42.3285 34.0346L35.0884 29.7928C35.1809 29.2972 35.2285 28.794 35.2304 28.2895C35.2272 26.5863 34.7042 24.9259 33.7334 23.5366C32.7625 22.1472 31.3914 21.097 29.8085 20.5302L29.8041 12.0481ZM32.3819 34.5509L39.6485 38.8035C36.6746 42.4606 32.1742 44.7833 27.1122 44.7865C22.0502 44.7898 17.5474 42.4729 14.5697 38.8195L21.8266 34.5631C23.2985 35.8397 25.1714 36.541 27.1079 36.5406C29.0433 36.5357 30.9134 35.8302 32.3819 34.5509Z" fill="white"/>
</svg>
