<svg width="42" height="43" viewBox="0 0 42 43" fill="none" xmlns="http://www.w3.org/2000/svg">
<path d="M29.4724 24.1127C29.4724 24.1127 31.332 25.9285 31.792 26.7687C31.8046 26.7869 31.8104 26.8005 31.8127 26.8085C32.0001 27.1189 32.0461 27.3622 31.9541 27.5418C31.7989 27.8386 31.2733 27.9875 31.0951 28C31.0951 28 27.9004 28 27.8084 28C27.5795 28 27.1034 27.9409 26.5238 27.5452C26.0811 27.2394 25.6406 26.7357 25.214 26.2434C24.5769 25.5123 24.026 24.8779 23.4683 24.8779C23.397 24.8779 23.328 24.8893 23.2613 24.912C22.8392 25.0439 22.3033 25.6385 22.3033 27.2223C22.3033 27.718 21.9077 28 21.6306 28C21.6306 28 20.1954 28 20.1252 28C19.6123 28 16.942 27.8226 14.5742 25.3543C11.6727 22.3323 9.0668 16.27 9.0415 16.2165C8.87935 15.8243 9.21975 15.6105 9.58775 15.6105H12.9067C13.3517 15.6105 13.4966 15.8766 13.5978 16.1154C13.7151 16.3894 14.1498 17.4854 14.8628 18.7167C16.0174 20.72 16.727 21.5352 17.2939 21.5352C17.4009 21.5352 17.5021 21.5091 17.5975 21.4557C18.3381 21.0532 18.2001 18.4382 18.1656 17.8992C18.1656 17.7946 18.1645 16.7316 17.785 16.2177C17.5136 15.8493 17.0513 15.7061 16.7718 15.6538C16.8466 15.5469 17.0053 15.3832 17.2088 15.2865C17.716 15.0364 18.6325 15 19.5422 15H20.047C21.0337 15.0136 21.289 15.0762 21.6478 15.166C22.37 15.3365 22.3838 15.7993 22.3206 17.3751C22.3022 17.8253 22.2826 18.3324 22.2826 18.9293C22.2826 19.0567 22.2769 19.1988 22.2769 19.3432C22.255 20.1516 22.2263 21.0623 22.8036 21.4363C22.8772 21.4818 22.9634 21.5068 23.0531 21.5068C23.2532 21.5068 23.8524 21.5068 25.4773 18.7497C26.1903 17.532 26.7423 16.096 26.7803 15.988C26.8125 15.9278 26.9091 15.7584 27.0264 15.6901C27.1161 15.6356 27.2357 15.6265 27.2978 15.6265H31.202C31.6275 15.6265 31.9162 15.6901 31.9725 15.8493C32.0668 16.1074 31.9541 16.8953 30.1716 19.2784C29.8715 19.6752 29.6081 20.0185 29.377 20.3187C27.7612 22.4153 27.7612 22.521 29.4724 24.1127Z" fill="#2D8CB3"/>
<path d="M20.9999 0.5C32.3099 0.5 41.5 9.89161 41.5 21.5001C41.5 33.1085 32.3101 42.5 21.0001 42.5C9.69005 42.5 0.5 33.1084 0.5 21.5001C0.5 9.89173 9.68864 0.5 20.9999 0.5Z" stroke="#2D8CB3"/>
</svg>
